<svg width="28px" height="28px" xmlns="http://www.w3.org/2000/svg" viewBox="0 0 28 28" id="calendar">
  <path fill-rule="evenodd"
        d="M28 14C28 21.728 21.728 28 14 28 6.272 28 0 21.728 0 14 0 6.272 6.272 0 14 0 21.728 0 28 6.272 28 14z"
        clip-rule="evenodd" />

  <path fill="#fff"
        d="M11 10.5a.5.5 0 0 1-.5-.5V8a.5.5 0 0 1 1 0v2a.5.5 0 0 1-.5.5zm6 0a.5.5 0 0 1-.5-.5V8a.5.5 0 0 1 1 0v2a.5.5 0 0 1-.5.5z" />
  <path fill="#fff"
        d="M19 20.5H9c-.827 0-1.5-.673-1.5-1.5v-9c0-.827.673-1.5 1.5-1.5h10c.827 0 1.5.673 1.5 1.5v9c0 .827-.673 1.5-1.5 1.5zM9 9.5a.5.5 0 0 0-.5.5v9a.5.5 0 0 0 .5.5h10a.5.5 0 0 0 .5-.5v-9a.5.5 0 0 0-.5-.5H9z" />
  <path fill="#fff"
        d="M20 12.5H8a.5.5 0 0 1 0-1h12a.5.5 0 0 1 0 1zm-8 2a.5.5 0 0 1 0-1 .5.5 0 0 1 0 1zm2 0a.5.5 0 0 1 0-1 .5.5 0 0 1 0 1zm2 0a.5.5 0 0 1 0-1 .5.5 0 0 1 0 1zm2 0a.5.5 0 0 1 0-1 .5.5 0 0 1 0 1zm-8 2a.5.5 0 0 1 0-1 .5.5 0 0 1 0 1zm2 0a.5.5 0 0 1 0-1 .5.5 0 0 1 0 1zm2 0a.5.5 0 0 1 0-1 .5.5 0 0 1 0 1zm2 0a.5.5 0 0 1 0-1 .5.5 0 0 1 0 1zm2 0a.5.5 0 0 1 0-1 .5.5 0 0 1 0 1zm-8 2a.5.5 0 0 1 0-1 .5.5 0 0 1 0 1zm2 0a.5.5 0 0 1 0-1 .5.5 0 0 1 0 1zm2 0a.5.5 0 0 1 0-1 .5.5 0 0 1 0 1z" />
</svg>
