<svg xmlns="http://www.w3.org/2000/svg" width="1.5rem" height="1.5rem" fill="currentColor" aria-label="menu file" class="bi-menu-file sidenav-icon b-icon bi" viewBox="0 0 24 24"><g fill-rule="evenodd" clip-rule="evenodd"><path d="M10.391 11.432a.75.75 0 0 1 0 1.06l-2.5 2.501a.75.75 0 0 1-1.061 0l-1.501-1.5a.75.75 0 1 1 1.06-1.06l.97.97 1.972-1.971a.75.75 0 0 1 1.06 0Z"/><path d="M10.391 12.492a.75.75 0 1 0-1.06-1.06l-1.971 1.97-.97-.97a.75.75 0 0 0-1.061 1.06l1.5 1.501a.75.75 0 0 0 1.061 0l2.501-2.5Z"/><path d="M7.998 2.246a2.75 2.75 0 0 0-2.75 2.751v2.326a3.751 3.751 0 0 0-3.002 3.675v4.005a3.751 3.751 0 0 0 3.001 3.675v.325a2.75 2.75 0 0 0 2.751 2.75h10.004a2.75 2.75 0 0 0 2.751-2.75V7.826c0-.73-.29-1.43-.806-1.945l-2.829-2.829a2.75 2.75 0 0 0-1.945-.806H7.998ZM5.996 8.748a2.25 2.25 0 0 0-2.25 2.25v4.005a2.25 2.25 0 0 0 2.25 2.25H10a2.25 2.25 0 0 0 2.25-2.25v-4.005A2.25 2.25 0 0 0 10 8.748H5.996Zm8.255-1.75c0 .967.784 1.75 1.75 1.75h3.252v10.255c0 .69-.56 1.25-1.25 1.25H7.997c-.69 0-1.25-.56-1.25-1.25v-.25H10a3.75 3.75 0 0 0 3.75-3.75v-4.005A3.75 3.75 0 0 0 10 7.248H6.747v-2.25c0-.692.56-1.252 1.251-1.252h6.253v3.252Zm1.5 0c0 .138.112.25.25.25h3.11a1.253 1.253 0 0 0-.224-.306L17.364 5.42l-1.307-1.307a1.251 1.251 0 0 0-.306-.225v3.11Z"/></g></svg>