<svg width="22" height="22" viewBox="0 0 22 22" fill="none" xmlns="http://www.w3.org/2000/svg">
<path d="M11.4473 2.22745C11.3227 2.12069 11.1641 2.06201 11 2.06201C10.8359 2.06201 10.6773 2.12069 10.5527 2.22745L2.30268 9.29953C2.16563 9.41858 2.08124 9.587 2.0679 9.76804C2.05456 9.94908 2.11337 10.128 2.23149 10.2659C2.34961 10.4037 2.51745 10.4893 2.69839 10.5038C2.87934 10.5184 3.0587 10.4608 3.19734 10.3436L3.24134 10.3051V19.2499C3.24134 19.6294 3.54934 19.9374 3.92884 19.9374H18.0712C18.2535 19.9374 18.4284 19.865 18.5573 19.7361C18.6862 19.6072 18.7587 19.4323 18.7587 19.2499V10.3051L18.8027 10.3427C18.9418 10.4544 19.119 10.5076 19.2967 10.4911C19.4744 10.4746 19.6387 10.3896 19.7549 10.2541C19.8711 10.1187 19.93 9.94333 19.9193 9.76518C19.9086 9.58704 19.829 9.42006 19.6973 9.29953L18.7587 8.4947V2.74995C18.7587 2.56761 18.6862 2.39274 18.5573 2.26381C18.4284 2.13488 18.2535 2.06245 18.0712 2.06245H14.5356C14.3533 2.06245 14.1784 2.13488 14.0495 2.26381C13.9205 2.39274 13.8481 2.56761 13.8481 2.74995V4.28537L11.4473 2.22745ZM4.61634 9.12812L11 3.6547L14.08 6.2947L17.3837 9.1272V18.5624H14.0452V15.19C14.0452 14.5215 13.7796 13.8803 13.3068 13.4075C12.8341 12.9348 12.1929 12.6692 11.5243 12.6692H10.4766C9.80803 12.6692 9.16684 12.9348 8.69409 13.4075C8.22135 13.8803 7.95576 14.5215 7.95576 15.19V18.5624H4.61634V9.12812ZM17.3837 7.31495L15.2231 5.46328V3.43745H17.3837V7.31495ZM10.4766 14.0433H11.5243C12.1568 14.0433 12.6702 14.5566 12.6702 15.1891V18.5615H9.33076V15.1891C9.33076 14.5566 9.84409 14.0433 10.4766 14.0433Z" fill="black"/>
</svg>
