<svg width="206" height="56" viewBox="0 0 206 56" fill="none" xmlns="http://www.w3.org/2000/svg">
<path d="M0 14.5878C3.94672 14.6163 7.89344 14.6448 11.8344 14.6733C11.8344 28.2189 11.8344 41.7587 11.8344 55.3042C17.3702 41.7587 22.906 28.2189 28.4418 14.6733C35.7459 14.6733 43.0441 14.6733 50.3482 14.6733C50.4637 28.447 50.5851 42.2264 50.7006 56C46.8406 56 42.9863 56 39.1263 56C39.0685 42.5743 39.0107 29.1485 38.9472 15.7227C33.654 29.1485 28.3552 42.5743 23.0563 56C15.3708 56 7.68542 56 0 56C0 42.1978 0 28.3957 0 14.5878Z" fill="black"/>
<path d="M54.3239 14.6733C68.1634 14.6448 82.003 14.6163 95.8425 14.5878C95.8714 17.9014 95.9003 21.2151 95.9292 24.5288C90.8036 24.5288 85.6839 24.5288 80.5583 24.5288C80.5005 35.0173 80.4428 45.5115 80.3792 56C76.6983 56 73.0174 56 69.3365 56C69.3365 45.5115 69.3365 35.0173 69.3365 24.5288C64.3323 24.5002 59.3281 24.4717 54.3181 24.4432C54.3239 21.1866 54.3239 17.93 54.3239 14.6733Z" fill="black"/>
<path d="M99.373 14.6733C105.822 14.6162 112.271 14.5592 118.719 14.4965C122.429 23.6789 126.139 32.8614 129.849 42.0495C133.501 32.9241 137.153 23.7987 140.805 14.6733C147.167 14.6447 153.523 14.6162 159.886 14.5877C159.857 28.3899 159.828 42.1978 159.799 56C156.147 56 152.495 56 148.843 56C148.814 44.7244 148.785 33.4488 148.756 22.1732C144.313 33.4488 139.863 44.7244 135.419 56C131.681 56 127.942 56 124.203 56C119.696 44.6103 115.195 33.215 110.687 21.8253C110.687 33.215 110.687 44.6103 110.687 56C106.949 56 103.21 56 99.4713 56C99.4366 42.2263 99.4077 28.4526 99.373 14.6733Z" fill="black"/>
<path d="M205.819 32.2853C205.559 30.272 204.773 24.7797 200.341 20.2512C194.875 14.6676 187.623 14.4052 185.323 14.3254C183.081 14.2455 175.025 13.9546 168.802 19.9945C164.404 24.2606 163.295 29.3994 162.971 31.4184C162.717 32.964 162.509 35.2454 162.885 37.9545C163.116 39.637 163.803 44.1712 167.299 48.4145C172.263 54.443 179.261 55.4924 181.081 55.7376C184.45 56.1882 187.258 55.7833 189.032 55.3897C191.113 55.1045 194.736 54.289 198.22 51.6426C203.45 47.673 204.9 42.2206 205.374 40.31C205.663 39.1522 206.316 36.1351 205.819 32.2853ZM194.955 37.3442C194.782 38.1883 194.47 39.6541 193.453 41.2681C192.973 42.0381 191.795 43.8518 189.477 45.0153C186.738 46.3898 184.132 45.9848 182.942 45.8023C182.012 45.6597 179.822 45.289 177.643 43.6236C176.73 42.9278 175.06 41.4164 174.112 38.9183C173.014 36.0267 173.54 33.5344 173.76 32.5534C173.991 31.5268 174.586 29.023 176.851 26.8842C177.262 26.4964 179.122 24.8025 182.15 24.1808C184.612 23.6789 186.588 24.1409 187.362 24.3576C188.293 24.6143 190.078 25.2473 191.777 26.7987C192.367 27.3348 194.21 29.137 194.955 32.1142C195.533 34.4241 195.163 36.3176 194.955 37.3442Z" fill="black"/>
<path d="M43.3735 0.203799C43.1077 0.277943 41.3106 0.825467 40.282 2.5593C39.8081 3.35777 39.6752 4.11062 39.577 4.65244C39.473 5.23418 39.3516 5.86726 39.4903 6.66003C39.733 8.06306 40.5998 8.9642 40.9061 9.27788C41.9289 10.3102 43.0788 10.6353 43.5584 10.7608C44.1362 10.9148 45.4942 11.2513 47.0024 10.6752C48.135 10.2418 48.7937 9.48891 49.2098 9.02123C49.6143 8.55925 50.2441 7.82352 50.5331 6.66573C50.5851 6.45471 50.8162 5.46802 50.5331 4.22468C50.4348 3.78552 50.1343 2.565 49.0306 1.52128C47.9212 0.477561 46.6672 0.238019 46.0258 0.123951C45.5058 0.0269939 44.5407 -0.132701 43.3735 0.203799Z" fill="black"/>
</svg>
