<svg width="22" height="22" viewBox="0 0 22 22" fill="none" xmlns="http://www.w3.org/2000/svg">
<path d="M4.58333 2.97917C3.91477 2.97917 3.27358 3.24475 2.80084 3.7175C2.32809 4.19025 2.0625 4.83143 2.0625 5.5V17.4167C2.0625 18.0852 2.32809 18.7264 2.80084 19.1992C3.27358 19.6719 3.91477 19.9375 4.58333 19.9375H8.25C8.43234 19.9375 8.6072 19.8651 8.73614 19.7361C8.86507 19.6072 8.9375 19.4323 8.9375 19.25C8.9375 19.0677 8.86507 18.8928 8.73614 18.7639C8.6072 18.6349 8.43234 18.5625 8.25 18.5625H4.58333C3.95083 18.5625 3.4375 18.0492 3.4375 17.4167V5.5C3.4375 4.8675 3.95083 4.35417 4.58333 4.35417H5.72917V4.58333C5.72917 4.76567 5.8016 4.94054 5.93053 5.06947C6.05946 5.1984 6.23433 5.27083 6.41667 5.27083C6.599 5.27083 6.77387 5.1984 6.9028 5.06947C7.03173 4.94054 7.10417 4.76567 7.10417 4.58333V4.35417H9.39583V4.58333C9.39583 4.76567 9.46827 4.94054 9.5972 5.06947C9.72613 5.1984 9.901 5.27083 10.0833 5.27083C10.2657 5.27083 10.4405 5.1984 10.5695 5.06947C10.6984 4.94054 10.7708 4.76567 10.7708 4.58333V4.35417H13.0625V4.58333C13.0625 4.76567 13.1349 4.94054 13.2639 5.06947C13.3928 5.1984 13.5677 5.27083 13.75 5.27083C13.9323 5.27083 14.1072 5.1984 14.2361 5.06947C14.3651 4.94054 14.4375 4.76567 14.4375 4.58333V4.35417H15.5833C16.2158 4.35417 16.7292 4.8675 16.7292 5.5V8.25C16.7292 8.43234 16.8016 8.6072 16.9305 8.73614C17.0595 8.86507 17.2343 8.9375 17.4167 8.9375C17.599 8.9375 17.7739 8.86507 17.9028 8.73614C18.0317 8.6072 18.1042 8.43234 18.1042 8.25V5.5C18.1042 4.83143 17.8386 4.19025 17.3658 3.7175C16.8931 3.24475 16.2519 2.97917 15.5833 2.97917H14.4375V2.75C14.4375 2.56766 14.3651 2.3928 14.2361 2.26386C14.1072 2.13493 13.9323 2.0625 13.75 2.0625C13.5677 2.0625 13.3928 2.13493 13.2639 2.26386C13.1349 2.3928 13.0625 2.56766 13.0625 2.75V2.97917H10.7708V2.75C10.7708 2.56766 10.6984 2.3928 10.5695 2.26386C10.4405 2.13493 10.2657 2.0625 10.0833 2.0625C9.901 2.0625 9.72613 2.13493 9.5972 2.26386C9.46827 2.3928 9.39583 2.56766 9.39583 2.75V2.97917H7.10417V2.75C7.10417 2.56766 7.03173 2.3928 6.9028 2.26386C6.77387 2.13493 6.599 2.0625 6.41667 2.0625C6.23433 2.0625 6.05946 2.13493 5.93053 2.26386C5.8016 2.3928 5.72917 2.56766 5.72917 2.75V2.97917H4.58333Z" fill="black"/>
<path fill-rule="evenodd" clip-rule="evenodd" d="M20.1914 10.9771C19.9812 10.7666 19.7314 10.5996 19.4566 10.4857C19.1817 10.3718 18.8871 10.3131 18.5896 10.3131C18.292 10.3131 17.9974 10.3718 17.7225 10.4857C17.4477 10.5996 17.198 10.7666 16.9877 10.9771L15.8125 12.1459L11.6994 16.2691C11.5504 16.4179 11.4322 16.5947 11.3515 16.7892C11.2708 16.9838 11.2292 17.1923 11.2292 17.403V19.2501C11.2292 19.6296 11.5372 19.9376 11.9167 19.9376H13.7638C14.1882 19.9376 14.5961 19.7698 14.8968 19.4691L19.0218 15.3542L20.1896 14.1809C20.4002 13.9707 20.5674 13.7211 20.6815 13.4463C20.7956 13.1715 20.8544 12.8769 20.8545 12.5794C20.8547 12.2819 20.7962 11.9872 20.6825 11.7123C20.5687 11.4373 20.4018 11.1875 20.1914 10.9771ZM19.2179 11.9488C19.1354 11.8661 19.0373 11.8004 18.9293 11.7557C18.8213 11.7109 18.7055 11.6878 18.5886 11.6878C18.4717 11.6878 18.356 11.7109 18.248 11.7557C18.14 11.8004 18.0419 11.8661 17.9594 11.9488L17.2737 12.6354L18.5323 13.8931L19.2179 13.2074C19.3848 13.0405 19.4785 12.8141 19.4785 12.5781C19.4785 12.3421 19.3848 12.1157 19.2179 11.9488ZM12.6711 17.2407C12.6498 17.262 12.633 17.2873 12.6215 17.3152C12.61 17.343 12.6041 17.3729 12.6042 17.403V18.5626H13.7638C13.8252 18.5626 13.8829 18.5387 13.9251 18.4966L17.5597 14.8647L16.302 13.608L12.6711 17.2407Z" fill="black"/>
<path d="M6.41669 7.5625C6.23435 7.5625 6.05948 7.63493 5.93055 7.76386C5.80162 7.8928 5.72919 8.06766 5.72919 8.25C5.72919 8.43234 5.80162 8.6072 5.93055 8.73614C6.05948 8.86507 6.23435 8.9375 6.41669 8.9375H13.75C13.9324 8.9375 14.1072 8.86507 14.2362 8.73614C14.3651 8.6072 14.4375 8.43234 14.4375 8.25C14.4375 8.06766 14.3651 7.8928 14.2362 7.76386C14.1072 7.63493 13.9324 7.5625 13.75 7.5625H6.41669ZM6.41669 11.2292C6.23435 11.2292 6.05948 11.3016 5.93055 11.4305C5.80162 11.5595 5.72919 11.7343 5.72919 11.9167C5.72919 12.099 5.80162 12.2739 5.93055 12.4028C6.05948 12.5317 6.23435 12.6042 6.41669 12.6042H11C11.1824 12.6042 11.3572 12.5317 11.4862 12.4028C11.6151 12.2739 11.6875 12.099 11.6875 11.9167C11.6875 11.7343 11.6151 11.5595 11.4862 11.4305C11.3572 11.3016 11.1824 11.2292 11 11.2292H6.41669ZM6.41669 14.8958C6.23435 14.8958 6.05948 14.9683 5.93055 15.0972C5.80162 15.2261 5.72919 15.401 5.72919 15.5833C5.72919 15.7657 5.80162 15.9405 5.93055 16.0695C6.05948 16.1984 6.23435 16.2708 6.41669 16.2708H9.16669C9.34902 16.2708 9.52389 16.1984 9.65282 16.0695C9.78175 15.9405 9.85419 15.7657 9.85419 15.5833C9.85419 15.401 9.78175 15.2261 9.65282 15.0972C9.52389 14.9683 9.34902 14.8958 9.16669 14.8958H6.41669Z" fill="black"/>
</svg>
