<svg xmlns="http://www.w3.org/2000/svg" width="1.5rem" height="1.5rem" fill="currentColor" aria-label="menu notebook" class="bi-menu-notebook sidenav-icon b-icon bi menu-notebook" viewBox="0 0 24 24"><path d="M3.25 5A2.75 2.75 0 0 1 6 2.25h12A2.75 2.75 0 0 1 20.75 5v4.419c.591.28 1 .883 1 1.581v2c0 .698-.409 1.3-1 1.582V19A2.75 2.75 0 0 1 18 21.75H6A2.75 2.75 0 0 1 3.25 19V5ZM18 10.75a1.25 1.25 0 1 0 0 2.5h2a.25.25 0 0 0 .25-.25v-2a.25.25 0 0 0-.25-.25h-2Zm0-7H8.75v16.5H18c.69 0 1.25-.56 1.25-1.25v-4.25H18a2.75 2.75 0 1 1 0-5.5h1.25V5c0-.69-.56-1.25-1.25-1.25Zm-12 0c-.69 0-1.25.56-1.25 1.25v14c0 .69.56 1.25 1.25 1.25h1.25V3.75H6Z"/></svg>