<svg xmlns="http://www.w3.org/2000/svg" width="1.5rem" height="1.5rem" fill="currentColor" aria-label="user edit" class="bi-user-edit sidenav-icon b-icon bi text-primary" viewBox="0 0 24 24"><g><path d="M2.25 19A4.75 4.75 0 0 1 7 14.25h3a.75.75 0 0 1 0 1.5H7A3.25 3.25 0 0 0 3.75 19v1a.75.75 0 0 1-1.5 0v-1ZM13.25 21a.75.75 0 0 1 .75-.75h6a.75.75 0 0 1 0 1.5h-6a.75.75 0 0 1-.75-.75ZM18.041 12.75a.25.25 0 0 0-.176.073l-3.042 3.042a.25.25 0 0 0-.073.176v1.209h1.209a.25.25 0 0 0 .176-.073l3.042-3.042a.25.25 0 0 0 0-.353l-.959-.959a.25.25 0 0 0-.177-.073Zm-1.237-.987a1.75 1.75 0 0 1 2.475 0l.959.958a1.75 1.75 0 0 1 0 2.475l-3.042 3.041a1.75 1.75 0 0 1-1.238.513H14.5c-.69 0-1.25-.56-1.25-1.25v-1.459c0-.464.184-.909.513-1.237l3.041-3.041ZM11 3.75a3.25 3.25 0 1 0 0 6.5 3.25 3.25 0 0 0 0-6.5ZM6.25 7a4.75 4.75 0 1 1 9.5 0 4.75 4.75 0 0 1-9.5 0Z"/></g></svg>