<svg width="24" height="24" viewBox="0 0 24 24" fill="none" xmlns="http://www.w3.org/2000/svg">
<path d="M19.5 18.5L16.7 15.7C18.9 12.9 18.8 8.90002 16.2 6.30002C13.5 3.60002 9.00003 3.60002 6.30002 6.30002C3.60002 9.00002 3.60002 13.5 6.30002 16.2C8.90002 18.8 12.9 18.9 15.7 16.7L18.5 19.5C18.8 19.8 19.3 19.8 19.6 19.5C19.8 19.2 19.8 18.8 19.5 18.5ZM7.40002 15.2C5.20002 13 5.20002 9.50002 7.40002 7.40002C9.60003 5.30002 13.1 5.20002 15.2 7.40002C17.3 9.50002 17.4 13 15.3 15.2L15.2 15.3L15.1 15.4C13 17.3 9.50002 17.3 7.40002 15.2Z" fill="black"/>
</svg>
