<svg xmlns="http://www.w3.org/2000/svg" width="1.5rem" height="1.5rem" fill="currentColor" aria-label="adviser" class="bi-adviser sidenav-icon b-icon bi adviser" viewBox="0 0 24 24"><path d="M12 8.3c1.9 0 3.5-1.6 3.5-3.5S13.9 1.3 12 1.3 8.5 2.8 8.5 4.8s1.6 3.5 3.5 3.5Zm0-5.5c1.1 0 2 .9 2 2s-.9 2-2 2-2-.9-2-2 .9-2 2-2Zm8.2 9v-1c0-.6-.2-1.1-.6-1.5-.4-.4-1-.6-1.5-.5-2.1 0-4.2.6-6.1 1.6-1.9-1-4-1.6-6.1-1.6-.5 0-1.1.2-1.5.5-.4.4-.7.9-.6 1.5v1c-.8.1-1.5.8-1.5 1.7v2c0 .9.7 1.6 1.5 1.7v1c0 .9.7 1.7 1.7 1.7 2.2 0 4.3.6 6.1 1.7.1.1.2.1.3.1.1 0 .2 0 .3-.1 1.9-1.1 4-1.7 6.2-1.7.9 0 1.7-.8 1.7-1.7v-1c.8-.1 1.5-.8 1.5-1.7v-2c.2-.9-.5-1.6-1.4-1.7ZM3.8 13.5c0-.1.1-.2.2-.2h1c.7 0 1.2.6 1.2 1.2s-.5 1.3-1.2 1.3H4c-.1 0-.2-.1-.2-.2v-2.1Zm1.4 4.7v-1c1.4-.1 2.5-1.3 2.5-2.7 0-1.4-1.1-2.6-2.5-2.7v-1c0-.1.1-.3.2-.4.1-.1.2-.1.4-.1 1.9.1 3.8.6 5.5 1.5v8c-1.8-.9-3.8-1.3-5.8-1.3-.1 0-.2-.2-.3-.3Zm13.3.3c-2 0-4 .5-5.8 1.3v-8.1c1.7-.9 3.6-1.4 5.5-1.5.2 0 .3 0 .4.1.1.1.2.2.2.4v1c-1.4.1-2.5 1.3-2.5 2.7 0 1.4 1.1 2.6 2.5 2.7v1c-.1.2-.2.4-.3.4Zm1.7-3c0 .1-.1.2-.2.2h-1c-.7 0-1.2-.6-1.2-1.2s.6-1.2 1.2-1.2h1c.1 0 .2.1.2.2v2Z"/></svg>