<svg width="24" height="24" viewBox="0 0 24 24" fill="none" xmlns="http://www.w3.org/2000/svg">
<path fill-rule="evenodd" clip-rule="evenodd" d="M7.99835 5.76709C6.48429 5.76709 5.2569 6.99448 5.2569 8.50854C5.2569 10.0226 6.48429 11.25 7.99835 11.25C9.51241 11.25 10.7398 10.0226 10.7398 8.50854C10.7398 6.99448 9.51241 5.76709 7.99835 5.76709ZM3.7569 8.50854C3.7569 6.16605 5.65586 4.26709 7.99835 4.26709C10.3408 4.26709 12.2398 6.16605 12.2398 8.50854C12.2398 10.851 10.3408 12.75 7.99835 12.75C5.65586 12.75 3.7569 10.851 3.7569 8.50854ZM17.0021 7.74791C16.035 7.74791 15.2511 8.53188 15.2511 9.49896C15.2511 10.466 16.035 11.25 17.0021 11.25C17.9692 11.25 18.7531 10.466 18.7531 9.49896C18.7531 8.53188 17.9692 7.74791 17.0021 7.74791ZM13.7511 9.49896C13.7511 7.70346 15.2066 6.24791 17.0021 6.24791C18.7976 6.24791 20.2531 7.70346 20.2531 9.49896C20.2531 11.2945 18.7976 12.75 17.0021 12.75C15.2066 12.75 13.7511 11.2945 13.7511 9.49896ZM5.98051 15.7512C4.19381 15.7512 2.74585 17.1992 2.74585 18.9859V20.0033C2.74585 20.4175 2.41006 20.7533 1.99585 20.7533C1.58164 20.7533 1.24585 20.4175 1.24585 20.0033V18.9859C1.24585 16.3708 3.36538 14.2512 5.98051 14.2512H10.0162C12.6313 14.2512 14.7508 16.3708 14.7508 18.9859V20.0033C14.7508 20.4175 14.4151 20.7533 14.0008 20.7533C13.5866 20.7533 13.2508 20.4175 13.2508 20.0033V18.9859C13.2508 17.1992 11.8029 15.7512 10.0162 15.7512H5.98051ZM16.2521 15.0012C16.2521 14.587 16.5879 14.2512 17.0021 14.2512H18.1046C20.7197 14.2512 22.8392 16.3708 22.8392 18.9859V20.0033C22.8392 20.4175 22.5034 20.7533 22.0892 20.7533C21.675 20.7533 21.3392 20.4175 21.3392 20.0033V18.9859C21.3392 17.1992 19.8913 15.7512 18.1046 15.7512H17.0021C16.5879 15.7512 16.2521 15.4155 16.2521 15.0012Z" fill="black"/>
</svg>
